<?xml version="1.0" encoding="utf-8"?>
<svg xmlns="http://www.w3.org/2000/svg" viewBox="0 0 48 48" xmlns:bx="https://boxy-svg.com">
  <defs>
    <linearGradient id="gradient-0" bx:pinned="true">
      <stop offset="0" style="stop-color: rgba(0, 255, 255, 0.533);"/>
      <stop offset="1" style="stop-color: rgba(0, 255, 255, 0);"/>
    </linearGradient>
    <linearGradient id="gradient-15">
      <stop offset="0" style="stop-color: rgb(0, 255, 255);"/>
      <stop offset="1" style="stop-color: rgba(0, 255, 255, 0.533);"/>
    </linearGradient>
    <linearGradient id="gradient-8" x1="13.668" x2="13.668" y1="5.264" y2="21.619" gradientUnits="userSpaceOnUse">
      <stop offset="0" style="stop-color: rgba(0, 255, 255, 0.533);"/>
      <stop offset="1" style="stop-color: rgba(0, 255, 255, 0);"/>
    </linearGradient>
    <linearGradient id="gradient-9" x1="13.583" x2="13.583" y1="26.502" y2="42.857" gradientUnits="userSpaceOnUse">
      <stop offset="0" style="stop-color: rgba(0, 255, 255, 0.533);"/>
      <stop offset="1" style="stop-color: rgba(0, 255, 255, 0);"/>
    </linearGradient>
    <linearGradient id="gradient-10" x1="34.821" x2="34.821" y1="4.931" y2="42.982" gradientUnits="userSpaceOnUse">
      <stop offset="0" style="stop-color: rgba(0, 255, 255, 0.533);"/>
      <stop offset="1" style="stop-color: rgba(0, 255, 255, 0);"/>
    </linearGradient>
    <linearGradient id="gradient-11" x1="13.459" x2="13.459" y1="29.547" y2="40.061" gradientUnits="userSpaceOnUse">
      <stop offset="0" style="stop-color: rgba(0, 255, 255, 0.533);"/>
      <stop offset="1" style="stop-color: rgba(0, 255, 255, 0);"/>
    </linearGradient>
    <linearGradient id="gradient-12" x1="13.542" x2="13.542" y1="12.858" y2="14.694" gradientUnits="userSpaceOnUse">
      <stop offset="0" style="stop-color: rgba(0, 255, 255, 0.533);"/>
      <stop offset="1" style="stop-color: rgba(0, 255, 255, 0);"/>
    </linearGradient>
    <linearGradient id="gradient-13" x1="35.03" x2="35.03" y1="20.785" y2="22.621" gradientUnits="userSpaceOnUse">
      <stop offset="0" style="stop-color: rgba(0, 255, 255, 0.533);"/>
      <stop offset="1" style="stop-color: rgba(0, 255, 255, 0);"/>
    </linearGradient>
    <linearGradient id="gradient-14" x1="35.029" x2="35.029" y1="25.208" y2="27.044" gradientUnits="userSpaceOnUse">
      <stop offset="0" style="stop-color: rgba(0, 255, 255, 0.533);"/>
      <stop offset="1" style="stop-color: rgba(0, 255, 255, 0);"/>
    </linearGradient>
    <linearGradient id="gradient-15-0" href="#gradient-15" gradientUnits="userSpaceOnUse" x1="13.668" y1="5.264" x2="13.668" y2="21.619"/>
    <linearGradient id="gradient-15-1" href="#gradient-15" gradientUnits="userSpaceOnUse" x1="13.583" y1="26.502" x2="13.583" y2="42.857"/>
    <linearGradient id="gradient-15-2" href="#gradient-15" gradientUnits="userSpaceOnUse" x1="34.821" y1="4.931" x2="34.821" y2="42.982"/>
    <linearGradient id="gradient-15-3" href="#gradient-15" gradientUnits="userSpaceOnUse" x1="13.459" y1="29.547" x2="13.459" y2="40.061"/>
    <linearGradient id="gradient-15-4" href="#gradient-15" gradientUnits="userSpaceOnUse" x1="13.542" y1="12.858" x2="13.542" y2="14.694"/>
    <linearGradient id="gradient-15-5" href="#gradient-15" gradientUnits="userSpaceOnUse" x1="35.03" y1="20.785" x2="35.03" y2="22.621"/>
    <linearGradient id="gradient-15-6" href="#gradient-15" gradientUnits="userSpaceOnUse" x1="35.029" y1="25.208" x2="35.029" y2="27.044"/>
  </defs>
  <path d="M 6.491 5.264 H 20.846 L 21.846 6.264 V 20.619 L 20.846 21.619 H 6.491 L 5.491 20.619 V 6.264 L 6.491 5.264 Z" bx:shape="rect 5.491 5.264 16.355 16.355 1 1 1 2@3a7075f1" style="fill: url(&quot;#gradient-8&quot;); stroke: url(&quot;#gradient-15-0&quot;); stroke-linejoin: bevel;"/>
  <path d="M 6.406 26.502 H 20.761 L 21.761 27.502 V 41.857 L 20.761 42.857 H 6.406 L 5.406 41.857 V 27.502 L 6.406 26.502 Z" bx:shape="rect 5.406 26.502 16.355 16.355 1 1 1 2@84e0ebdc" style="stroke-width: 1; fill: url(&quot;#gradient-9&quot;); stroke: url(&quot;#gradient-15-1&quot;); stroke-linejoin: bevel;"/>
  <path d="M 27.268 4.931 H 42.374 L 43.374 5.931 V 41.982 L 42.374 42.982 H 27.268 L 26.268 41.982 V 5.931 L 27.268 4.931 Z" bx:shape="rect 26.268 4.931 17.106 38.051 1 1 1 2@c557b156" style="fill: url(&quot;#gradient-10&quot;); stroke: url(&quot;#gradient-15-2&quot;); stroke-linejoin: bevel;"/>
  <path d="M 12.349 29.547 H 14.569 V 33.753 H 19.008 V 35.856 H 14.569 V 40.061 H 12.349 V 35.856 H 7.91 V 33.753 H 12.349 Z" bx:shape="cross 7.91 29.547 11.098 10.514 2.103 2.22 0.5 1@2b91421b" style="fill: url(&quot;#gradient-11&quot;); stroke: url(&quot;#gradient-15-3&quot;); stroke-linejoin: bevel;"/>
  <path d="M 7.91 12.858 H 19.175 L 19.175 12.858 V 14.694 L 19.175 14.694 H 7.91 L 7.91 14.694 V 12.858 L 7.91 12.858 Z" bx:shape="rect 7.91 12.858 11.265 1.836 1 0 0 2@4dee195d" style="fill: url(&quot;#gradient-12&quot;); stroke: url(&quot;#gradient-15-4&quot;); stroke-linejoin: bevel;"/>
  <path d="M 29.398 20.785 H 40.663 L 40.663 20.785 V 22.621 L 40.663 22.621 H 29.398 L 29.398 22.621 V 20.785 L 29.398 20.785 Z" bx:shape="rect 29.398 20.785 11.265 1.836 1 0 0 2@4857c46c" style="stroke-width: 1; fill: url(&quot;#gradient-13&quot;); stroke: url(&quot;#gradient-15-5&quot;); stroke-linejoin: bevel;"/>
  <path d="M 29.397 25.208 H 40.662 L 40.662 25.208 V 27.044 L 40.662 27.044 H 29.397 L 29.397 27.044 V 25.208 L 29.397 25.208 Z" bx:shape="rect 29.397 25.208 11.265 1.836 1 0 0 2@38095d2b" style="stroke-width: 1; fill: url(&quot;#gradient-14&quot;); stroke: url(&quot;#gradient-15-6&quot;); stroke-linejoin: bevel;"/>
</svg>