<?xml version="1.0" encoding="utf-8"?>
<svg xmlns="http://www.w3.org/2000/svg" viewBox="0 0 48 48" xmlns:bx="https://boxy-svg.com">
    <defs>
        <linearGradient id="gradient-2" bx:pinned="true">
            <stop offset="0" style="stop-color: rgba(0, 255, 255, 0.533);"/>
            <stop offset="1" style="stop-color: rgba(0, 255, 255, 0);"/>
        </linearGradient>
        <linearGradient id="gradient-3">
            <stop offset="0" style="stop-color: rgb(0, 255, 255);"/>
            <stop offset="1" style="stop-color: rgba(0, 255, 255, 0.533);"/>
        </linearGradient>
        <linearGradient id="gradient-2-0" href="#gradient-2" gradientUnits="userSpaceOnUse" x1="24.245" y1="9.984" x2="24.245" y2="37.988"/>
        <linearGradient id="gradient-2-1" href="#gradient-2" gradientUnits="userSpaceOnUse" x1="51.601" y1="17.593" x2="51.601" y2="29.593"/>
        <linearGradient id="gradient-3-0" href="#gradient-3" gradientUnits="userSpaceOnUse" x1="24.245" y1="9.984" x2="24.245" y2="37.988"/>
        <linearGradient id="gradient-3-1" href="#gradient-3" gradientUnits="userSpaceOnUse" x1="51.601" y1="17.593" x2="51.601" y2="29.593"/>
    </defs>
    <path d="M 5.189 9.984 L 43.262 9.984 L 43.262 17.295 L 39.262 17.34 L 39.262 13.984 L 9.189 13.984 L 9.189 33.988 L 39.262 33.988 L 39.3 30.3 L 43.3 30.3 L 43.262 37.988 L 5.189 37.988 L 5.189 9.984 Z" style="fill: url(&quot;#gradient-2-0&quot;); stroke: url(&quot;#gradient-3-0&quot;);"/>
    <path d="M 43.734 20.593 H 51.467 L 51.467 17.593 L 59.467 23.593 L 51.467 29.593 L 51.467 26.593 H 43.734 V 20.593 Z" bx:shape="arrow 43.734 17.593 15.733 12 6 8 0 1@370034e0" style="fill: url(&quot;#gradient-2-1&quot;); stroke: url(&quot;#gradient-3-1&quot;);" transform="matrix(-0.9999875, 0.00499994, -0.00499994, -0.9999875, 87.11245728, 47.28071213)"/>
</svg>