<?xml version="1.0" encoding="utf-8"?>
<svg xmlns="http://www.w3.org/2000/svg" viewBox="0 0 48 48" xmlns:bx="https://boxy-svg.com">
    <defs>
        <linearGradient id="gradient-0" bx:pinned="true">
            <stop offset="0" style="stop-color: rgba(0, 255, 255, 0.533);"/>
            <stop offset="1" style="stop-color: rgba(0, 255, 255, 0);"/>
        </linearGradient>
        <linearGradient id="gradient-6">
            <stop offset="0" style="stop-color: rgb(0, 255, 255);"/>
            <stop offset="1" style="stop-color: rgba(0, 255, 255, 0.533);"/>
        </linearGradient>
        <linearGradient id="gradient-0-0" href="#gradient-0" gradientUnits="userSpaceOnUse" x1="23.223" y1="5.082" x2="23.223" y2="42.734"/>
        <linearGradient id="gradient-0-1" href="#gradient-0" gradientUnits="userSpaceOnUse" x1="15.224" y1="22.292" x2="15.224" y2="25.524" gradientTransform="matrix(0.98364114, 2e-8, -2e-8, 0.98364114, -3.3e-7, -0.00000347)"/>
        <linearGradient id="gradient-0-2" href="#gradient-0" gradientUnits="userSpaceOnUse" x1="30.252" y1="22.453" x2="30.252" y2="25.685" gradientTransform="matrix(0.98364104, 0, 0, 0.98364104, 0.00000459, -0.00000258)"/>
        <linearGradient id="gradient-0-3" href="#gradient-0" gradientUnits="userSpaceOnUse" x1="32.029" y1="23.019" x2="32.029" y2="24.635" gradientTransform="matrix(0.98364102, 5e-8, -5e-8, 0.98364102, 0.00000204, 2.8e-7)"/>
        <linearGradient id="gradient-6-0" href="#gradient-6" gradientUnits="userSpaceOnUse" x1="23.223" y1="5.082" x2="23.223" y2="42.734"/>
        <linearGradient id="gradient-6-1" href="#gradient-6" gradientUnits="userSpaceOnUse" x1="15.224" y1="22.292" x2="15.224" y2="25.524" gradientTransform="matrix(0.98364114, 2e-8, -2e-8, 0.98364114, -3.3e-7, -0.00000347)"/>
        <linearGradient id="gradient-6-2" href="#gradient-6" gradientUnits="userSpaceOnUse" x1="30.252" y1="22.453" x2="30.252" y2="25.685" gradientTransform="matrix(0.98364104, 0, 0, 0.98364104, 0.00000459, -0.00000258)"/>
        <linearGradient id="gradient-6-3" href="#gradient-6" gradientUnits="userSpaceOnUse" x1="32.029" y1="23.019" x2="32.029" y2="24.635" gradientTransform="matrix(0.98364102, 5e-8, -5e-8, 0.98364102, 0.00000204, 2.8e-7)"/>
    </defs>
    <ellipse style="fill: url(&quot;#gradient-0-0&quot;); stroke: url(&quot;#gradient-6-0&quot;);" cx="23.223" cy="23.908" rx="18.826" ry="18.826"/>
    <path d="M 7.947 21.927 H 22.001 L 23.001 22.927 V 24.106 L 22.001 25.106 H 7.947 L 6.947 24.106 V 22.927 L 7.947 21.927 Z" bx:shape="rect 6.947 21.927 16.054 3.179 1 1 1 2@f61ed7d0" style="fill: url(&quot;#gradient-0-1&quot;); stroke: url(&quot;#gradient-6-1&quot;); transform-box: fill-box; transform-origin: 100.496% 52.4999%;" transform="matrix(-0.14834358, 0.98893583, -0.98893583, -0.14834358, 0.23225501, 0.88702217)"/>
    <path d="M 24.638 22.085 H 34.878 L 35.878 23.085 V 24.264 L 34.878 25.264 H 24.638 L 23.638 24.264 V 23.085 L 24.638 22.085 Z" bx:shape="rect 23.638 22.085 12.24 3.179 1 1 1 2@c5dcc1ad" style="stroke-width: 1; fill: url(&quot;#gradient-0-2&quot;); stroke: url(&quot;#gradient-6-2&quot;); transform-box: fill-box; transform-origin: 0.00014% 50%;" transform="matrix(-0.99994189, 0.01077844, -0.01077844, -0.99994189, 0.23110481, 0.88853442)"/>
    <path d="M 24.478 22.643 H 38.532 L 39.532 23.438 V 23.438 L 38.532 24.232 H 24.478 L 23.478 23.438 V 23.438 L 24.478 22.643 Z" bx:shape="rect 23.478 22.643 16.054 1.589 1 1 1 2@134ca694" style="stroke-width: 1; fill: url(&quot;#gradient-0-3&quot;); stroke: url(&quot;#gradient-6-3&quot;); transform-box: fill-box; transform-origin: 0.49417% 59.9998%;" transform="matrix(0.7807067, -0.6248976, 0.6248976, 0.7807067, -0.32472777, 1.12573275)"/>
    <ellipse style="stroke: rgb(0, 255, 255); fill: rgb(0, 255, 255);" cx="23.353" cy="24.523" rx="2.742" ry="2.742"/>
</svg>