<?xml version="1.0" encoding="utf-8"?>
<svg xmlns="http://www.w3.org/2000/svg" viewBox="0 0 48 48" xmlns:bx="https://boxy-svg.com">
    <defs>
        <linearGradient id="gradient-2" bx:pinned="true">
            <stop offset="0" style="stop-color: rgba(0, 255, 255, 0.533);"/>
            <stop offset="1" style="stop-color: rgba(0, 255, 255, 0);"/>
        </linearGradient>
        <linearGradient id="gradient-3">
            <stop offset="0" style="stop-color: rgb(0, 255, 255);"/>
            <stop offset="1" style="stop-color: rgba(0, 255, 255, 0.533);"/>
        </linearGradient>
        <linearGradient id="gradient-2-0" href="#gradient-2" gradientUnits="userSpaceOnUse" x1="24.245" y1="9.984" x2="24.245" y2="37.988"/>
        <linearGradient id="gradient-2-1" href="#gradient-2" gradientUnits="userSpaceOnUse" x1="51.601" y1="17.593" x2="51.601" y2="29.593" gradientTransform="matrix(1.06667906, 0, 0, 0.99999994, 0, 0)"/>
        <linearGradient id="gradient-3-0" href="#gradient-3" gradientUnits="userSpaceOnUse" x1="24.245" y1="9.984" x2="24.245" y2="37.988"/>
        <linearGradient id="gradient-3-1" href="#gradient-3" gradientUnits="userSpaceOnUse" x1="51.601" y1="17.593" x2="51.601" y2="29.593" gradientTransform="matrix(1.06667906, 0, 0, 0.99999994, 0, 0)"/>
        <linearGradient id="gradient-2-2" href="#gradient-2" gradientUnits="userSpaceOnUse" x1="51.601" y1="17.593" x2="51.601" y2="29.593" gradientTransform="matrix(1.06667868, 0, 0, 0.99999958, -36.45354166, 0.48454924)"/>
        <linearGradient id="gradient-3-2" href="#gradient-3" gradientUnits="userSpaceOnUse" x1="51.601" y1="17.593" x2="51.601" y2="29.593" gradientTransform="matrix(1.06667868, 0, 0, 0.99999958, -36.45354166, 0.48454924)"/>
    </defs>
    <path d="M 5.189 9.984 L 43.262 9.984 L 43.262 17.295 L 39.262 17.34 L 39.262 13.984 L 9.189 13.984 L 9.189 33.988 L 39.262 33.988 L 39.3 30.3 L 43.3 30.3 L 43.262 37.988 L 5.189 37.988 L 5.189 9.984 Z" style="fill: url(&quot;#gradient-2-0&quot;); stroke: url(&quot;#gradient-3-0&quot;); stroke-linejoin: bevel;"/>
    <path d="M 46.65 20.593 H 54.899 L 54.899 17.593 L 63.432 23.593 L 54.899 29.593 L 54.899 26.593 H 46.65 V 20.593 Z" bx:shape="arrow 46.65 17.593 16.782 12 6 8.533 0 1@1e096779" style="fill: url(&quot;#gradient-2-1&quot;); stroke: url(&quot;#gradient-3-1&quot;); stroke-linejoin: bevel;" transform="matrix(-0.9999875, 0.00499994, -0.00499994, -0.9999875, 90.02856445, 47.26613235)"/>
    <path d="M 13.397 21.093 L 18.445 21.078 L 18.445 18.078 L 26.979 24.078 L 18.445 30.078 L 18.445 27.078 L 13.054 27.078 L 16.825 24.227 L 13.066 21.117 L 13.397 21.093 Z" style="fill: url(&quot;#gradient-2-2&quot;); stroke: url(&quot;#gradient-3-2&quot;); stroke-width: 1; transform-box: fill-box; transform-origin: 50% 50%; stroke-linejoin: bevel;" transform="matrix(-0.999987500217, 0.004999940906, -0.004999940906, -0.999987500217, -3.59736e-7, 1.3972e-8)"/>
</svg>