<?xml version="1.0" encoding="utf-8"?>
<svg xmlns="http://www.w3.org/2000/svg" viewBox="0 0 48 48" xmlns:bx="https://boxy-svg.com">
    <defs>
        <linearGradient id="gradient-0" bx:pinned="true">
            <stop offset="0" style="stop-color: rgba(0, 255, 255, 0.533);"/>
            <stop offset="1" style="stop-color: rgba(0, 255, 255, 0);"/>
        </linearGradient>
        <linearGradient id="gradient-4">
            <stop offset="0" style="stop-color: rgb(0, 255, 255);"/>
            <stop offset="1" style="stop-color: rgba(0, 255, 255, 0.533);"/>
        </linearGradient>
        <linearGradient id="gradient-0-0" href="#gradient-0" gradientUnits="userSpaceOnUse" x1="24.068" y1="20.317" x2="24.068" y2="45.061"/>
        <linearGradient id="gradient-0-1" href="#gradient-0" gradientUnits="userSpaceOnUse" x1="23.832" y1="28.619" x2="23.832" y2="37.497"/>
        <linearGradient id="gradient-0-2" href="#gradient-0" gradientUnits="userSpaceOnUse" x1="23.724" y1="1.82" x2="23.724" y2="20.317"/>
        <linearGradient id="gradient-4-0" href="#gradient-4" gradientUnits="userSpaceOnUse" x1="24.068" y1="20.317" x2="24.068" y2="45.061"/>
        <linearGradient id="gradient-4-1" href="#gradient-4" gradientUnits="userSpaceOnUse" x1="23.832" y1="28.619" x2="23.832" y2="37.497"/>
        <linearGradient id="gradient-4-2" href="#gradient-4" gradientUnits="userSpaceOnUse" x1="23.724" y1="1.82" x2="23.724" y2="20.317"/>
    </defs>
    <path d="M 5.297 20.317 H 42.839 L 43.839 21.317 V 44.061 L 42.839 45.061 H 5.297 L 4.297 44.061 V 21.317 L 5.297 20.317 Z" bx:shape="rect 4.297 20.317 39.542 24.744 1 1 1 2@831675a7" style="fill: url(&quot;#gradient-0-0&quot;); stroke: url(&quot;#gradient-4-0&quot;);"/>
    <path style="fill: url(&quot;#gradient-0-1&quot;); stroke: url(&quot;#gradient-4-1&quot;);" d="M 22.792 37.435 L 24.793 37.497 L 24.824 33.778 C 27.619 32.881 27.513 28.688 23.792 28.62 C 20.097 28.552 20.139 33.183 22.76 33.746 L 22.792 37.435 Z"/>
    <path style="fill: url(&quot;#gradient-0-2&quot;); stroke: url(&quot;#gradient-4-2&quot;);" d="M 10.544 12.671 L 10.349 20.204 L 15.231 20.235 L 15.395 12.508 C 15.395 12.508 15.748 6.321 23.781 6.424 C 32.234 6.532 32.247 12.507 32.247 12.507 L 32.329 20.317 L 37.097 20.316 L 37.098 12.342 C 37.098 12.342 37.068 1.832 23.697 1.82 C 10.824 1.808 10.544 12.671 10.544 12.671 Z"/>
</svg>