<?xml version="1.0" encoding="utf-8"?>
<svg xmlns="http://www.w3.org/2000/svg" viewBox="0 0 48 48" xmlns:bx="https://boxy-svg.com">
  <defs>
    <linearGradient id="gradient-6">
      <stop offset="0" style="stop-color: rgb(0, 255, 255);"/>
      <stop offset="1" style="stop-color: rgba(0, 255, 255, 0.533);"/>
    </linearGradient>
    <linearGradient id="gradient-0" bx:pinned="true">
      <stop offset="0" style="stop-color: rgba(0, 255, 255, 0.533);"/>
      <stop offset="1" style="stop-color: rgba(0, 255, 255, 0);"/>
    </linearGradient>
    <linearGradient id="gradient-0-0" href="#gradient-0" gradientUnits="userSpaceOnUse" x1="22.703" y1="5.399" x2="22.703" y2="43.025"/>
    <linearGradient id="gradient-0-1" href="#gradient-0" gradientUnits="userSpaceOnUse" x1="22.478" y1="14.893" x2="22.478" y2="19.492"/>
    <linearGradient id="gradient-0-2" href="#gradient-0" gradientUnits="userSpaceOnUse" x1="16.731" y1="35.834" x2="16.731" y2="40.104"/>
    <linearGradient id="gradient-0-3" href="#gradient-0" gradientUnits="userSpaceOnUse" x1="22.398" y1="21.873" x2="22.398" y2="26.472"/>
    <linearGradient id="gradient-0-4" href="#gradient-0" gradientUnits="userSpaceOnUse" x1="22.396" y1="28.853" x2="22.396" y2="33.452"/>
    <linearGradient id="gradient-6-0" href="#gradient-6" gradientUnits="userSpaceOnUse" x1="22.703" y1="5.399" x2="22.703" y2="43.025"/>
    <linearGradient id="gradient-6-1" href="#gradient-6" gradientUnits="userSpaceOnUse" x1="22.478" y1="14.893" x2="22.478" y2="19.492"/>
    <linearGradient id="gradient-6-2" href="#gradient-6" gradientUnits="userSpaceOnUse" x1="16.731" y1="35.834" x2="16.731" y2="40.104"/>
    <linearGradient id="gradient-6-3" href="#gradient-6" gradientUnits="userSpaceOnUse" x1="22.398" y1="21.873" x2="22.398" y2="26.472"/>
    <linearGradient id="gradient-6-4" href="#gradient-6" gradientUnits="userSpaceOnUse" x1="22.396" y1="28.853" x2="22.396" y2="33.452"/>
  </defs>
  <path style="fill: url(&quot;#gradient-0-0&quot;); stroke: url(&quot;#gradient-6-0&quot;);" d="M 14.118 5.493 C 9.275 5.578 6.436 8.856 6.423 13.093 L 6.329 43.025 L 39.077 42.837 L 38.982 5.399 L 14.118 5.493 Z"/>
  <path d="M 10.832 14.893 H 34.125 L 35.125 15.893 V 18.492 L 34.125 19.492 H 10.832 L 9.832 18.492 V 15.893 L 10.832 14.893 Z" bx:shape="rect 9.832 14.893 25.293 4.599 1 1 1 2@22f4d6c2" style="fill: url(&quot;#gradient-0-1&quot;); stroke: url(&quot;#gradient-6-1&quot;);"/>
  <path d="M 10.75 35.834 H 22.711 L 23.711 36.834 V 39.104 L 22.711 40.104 H 10.75 L 9.75 39.104 V 36.834 L 10.75 35.834 Z" bx:shape="rect 9.75 35.834 13.961 4.27 1 1 1 2@9c69ea46" style="fill: url(&quot;#gradient-0-2&quot;); stroke: url(&quot;#gradient-6-2&quot;);"/>
  <path d="M 10.751 21.873 H 34.044 L 35.044 22.873 V 25.472 L 34.044 26.472 H 10.751 L 9.751 25.472 V 22.873 L 10.751 21.873 Z" bx:shape="rect 9.751 21.873 25.293 4.599 1 1 1 2@c633e1c8" style="fill: url(&quot;#gradient-0-3&quot;); stroke: url(&quot;#gradient-6-3&quot;);"/>
  <path d="M 10.75 28.853 H 34.043 L 35.043 29.853 V 32.452 L 34.043 33.452 H 10.75 L 9.75 32.452 V 29.853 L 10.75 28.853 Z" bx:shape="rect 9.75 28.853 25.293 4.599 1 1 1 2@c48dcf5d" style="fill: url(&quot;#gradient-0-4&quot;); stroke: url(&quot;#gradient-6-4&quot;);"/>
</svg>